<svg width="50" height="50" viewBox="0 0 50 50" fill="none" xmlns="http://www.w3.org/2000/svg">
<g id="connected=offline" clip-path="url(#clip0_202_730)">
<rect width="50" height="50" fill="black"/>
<circle id="Ellipse 8" cx="25" cy="34" r="4" fill="white"/>
<g id="wifi">
<circle id="Ellipse 4" cx="25.5" cy="26.5" r="17.5" stroke="white" stroke-width="2"/>
<circle id="Ellipse 6" cx="25.5" cy="29.5" r="14.5" stroke="white" stroke-width="2"/>
<circle id="Ellipse 7" cx="25.5" cy="33.5" r="11.5" stroke="white" stroke-width="2"/>
<circle id="Ellipse 5" cx="25.5" cy="24.5" r="20.5" stroke="white" stroke-width="2"/>
</g>
<path id="Polygon 3" d="M17.5797 46.9953C20.8233 52.8007 29.1767 52.8008 32.4203 46.9953L53.2884 9.64593C56.4541 3.98011 52.3583 -3 45.8681 -3H4.13192C-2.3583 -3 -6.45405 3.9801 -3.28841 9.64593L17.5797 46.9953Z" stroke="black" stroke-width="11"/>
<g id="error">
<line id="Line 20" x1="25.2331" y1="29.7914" x2="27.7914" y2="6.7669" stroke="black" stroke-width="4" stroke-linecap="round" stroke-dasharray="2 5 3 1"/>
<line id="Line 22" x1="31.0112" y1="26.35" x2="39.8501" y2="6.98881" stroke="black" stroke-width="4" stroke-linecap="round" stroke-dasharray="2 5 3 1"/>
<line id="Line 23" x1="33.1838" y1="26.1776" x2="44.9891" y2="15.8161" stroke="black" stroke-width="4" stroke-linecap="round" stroke-dasharray="2 5 3 1"/>
<line id="Line 24" x1="19.5213" y1="19.6377" x2="13.3715" y2="-1.52129" stroke="black" stroke-width="4" stroke-linecap="round" stroke-dasharray="2 5 3 1"/>
<line id="Line 25" x1="14.175" y1="15.8612" x2="4.17272" y2="4.82504" stroke="black" stroke-width="4" stroke-linecap="round" stroke-dasharray="2 5 3 1"/>
<line id="Line 26" x1="2" y1="-2" x2="33" y2="-2" transform="matrix(-0.766044 -0.642788 -0.642788 0.766044 25.8116 36.4976)" stroke="black" stroke-width="4" stroke-linecap="round" stroke-dasharray="2 5 3 1"/>
<g id="Union">
<mask id="path-13-outside-1_202_730" maskUnits="userSpaceOnUse" x="16.4038" y="25.9038" width="18" height="18" fill="black">
<rect fill="white" x="16.4038" y="25.9038" width="18" height="18"/>
<path fill-rule="evenodd" clip-rule="evenodd" d="M18.9896 28.4896C18.2086 29.2706 18.2086 30.537 18.9896 31.318L22.1716 34.5L18.9896 37.682C18.2086 38.4631 18.2086 39.7294 18.9896 40.5105C19.7707 41.2915 21.037 41.2915 21.8181 40.5105L25.0001 37.3285L28.182 40.5104C28.9631 41.2915 30.2294 41.2915 31.0104 40.5104C31.7915 39.7294 31.7915 38.463 31.0104 37.682L27.8285 34.5L31.0104 31.3181C31.7915 30.537 31.7915 29.2707 31.0104 28.4897C30.2294 27.7086 28.9631 27.7086 28.182 28.4897L25.0001 31.6716L21.8181 28.4896C21.037 27.7085 19.7707 27.7085 18.9896 28.4896Z"/>
</mask>
<path fill-rule="evenodd" clip-rule="evenodd" d="M18.9896 28.4896C18.2086 29.2706 18.2086 30.537 18.9896 31.318L22.1716 34.5L18.9896 37.682C18.2086 38.4631 18.2086 39.7294 18.9896 40.5105C19.7707 41.2915 21.037 41.2915 21.8181 40.5105L25.0001 37.3285L28.182 40.5104C28.9631 41.2915 30.2294 41.2915 31.0104 40.5104C31.7915 39.7294 31.7915 38.463 31.0104 37.682L27.8285 34.5L31.0104 31.3181C31.7915 30.537 31.7915 29.2707 31.0104 28.4897C30.2294 27.7086 28.9631 27.7086 28.182 28.4897L25.0001 31.6716L21.8181 28.4896C21.037 27.7085 19.7707 27.7085 18.9896 28.4896Z" fill="#FF2828"/>
<path d="M18.9896 31.318L20.4038 29.9038L18.9896 31.318ZM18.9896 28.4896L20.4038 29.9038L18.9896 28.4896ZM22.1716 34.5L23.5858 35.9142L25.0001 34.5L23.5858 33.0858L22.1716 34.5ZM18.9896 37.682L17.5754 36.2678H17.5754L18.9896 37.682ZM18.9896 40.5105L17.5754 41.9247H17.5754L18.9896 40.5105ZM21.8181 40.5105L20.4038 39.0963H20.4038L21.8181 40.5105ZM25.0001 37.3285L26.4143 35.9142L25.0001 34.5L23.5858 35.9142L25.0001 37.3285ZM31.0104 37.682L32.4247 36.2678L31.0104 37.682ZM27.8285 34.5L26.4143 33.0858L25.0001 34.5L26.4143 35.9142L27.8285 34.5ZM31.0104 31.3181L32.4247 32.7323L31.0104 31.3181ZM31.0104 28.4897L29.5962 29.9039L29.5962 29.9039L31.0104 28.4897ZM28.182 28.4897L29.5962 29.9039V29.9039L28.182 28.4897ZM25.0001 31.6716L23.5858 33.0858L25.0001 34.5L26.4143 33.0858L25.0001 31.6716ZM21.8181 28.4896L23.2323 27.0754V27.0754L21.8181 28.4896ZM20.4038 29.9038L20.4038 29.9038L17.5754 27.0754C16.0133 28.6375 16.0133 31.1701 17.5754 32.7322L20.4038 29.9038ZM23.5858 33.0858L20.4038 29.9038L17.5754 32.7322L20.7574 35.9142L23.5858 33.0858ZM20.4038 39.0963L23.5858 35.9142L20.7574 33.0858L17.5754 36.2678L20.4038 39.0963ZM20.4038 39.0963L17.5754 36.2678C16.0133 37.8299 16.0133 40.3626 17.5754 41.9247L20.4038 39.0963ZM20.4038 39.0963H20.4038L17.5754 41.9247C19.1375 43.4868 21.6702 43.4868 23.2323 41.9247L20.4038 39.0963ZM23.5858 35.9142L20.4038 39.0963L23.2323 41.9247L26.4143 38.7427L23.5858 35.9142ZM29.5962 39.0962L26.4143 35.9142L23.5858 38.7427L26.7678 41.9246L29.5962 39.0962ZM29.5962 39.0962L26.7678 41.9246C28.3299 43.4867 30.8626 43.4867 32.4247 41.9246L29.5962 39.0962ZM29.5962 39.0962V39.0962L32.4247 41.9246C33.9868 40.3625 33.9868 37.8299 32.4247 36.2678L29.5962 39.0962ZM26.4143 35.9142L29.5962 39.0962L32.4247 36.2678L29.2427 33.0858L26.4143 35.9142ZM29.5962 29.9039L26.4143 33.0858L29.2427 35.9142L32.4247 32.7323L29.5962 29.9039ZM29.5962 29.9039V29.9039L32.4247 32.7323C33.9868 31.1702 33.9868 28.6375 32.4247 27.0754L29.5962 29.9039ZM29.5962 29.9039H29.5962L32.4247 27.0754C30.8626 25.5133 28.3299 25.5133 26.7678 27.0754L29.5962 29.9039ZM26.4143 33.0858L29.5962 29.9039L26.7678 27.0754L23.5858 30.2574L26.4143 33.0858ZM20.4038 29.9038L23.5858 33.0858L26.4143 30.2574L23.2323 27.0754L20.4038 29.9038ZM20.4038 29.9038L20.4038 29.9038L23.2323 27.0754C21.6702 25.5133 19.1375 25.5133 17.5754 27.0754L20.4038 29.9038Z" fill="black" mask="url(#path-13-outside-1_202_730)"/>
</g>
</g>
</g>
<defs>
<clipPath id="clip0_202_730">
<rect width="50" height="50" fill="white"/>
</clipPath>
</defs>
</svg>
