<svg width="50" height="50" viewBox="0 0 50 50" fill="none" xmlns="http://www.w3.org/2000/svg">
<g id="Frame 5">
<rect id="Rectangle 7" width="50" height="50" fill="#08799A"/>
<path id="Rectangle 8" d="M0 0H50V50L41.5 30.5L25.5 29L23.5 20.5L8.5 23L0 0Z" fill="#01005B"/>
<path id="Arrow 1" d="M10 14.5H8.5V17.5H10V14.5ZM41.0607 17.0607C41.6464 16.4749 41.6464 15.5251 41.0607 14.9393L31.5147 5.3934C30.9289 4.80761 29.9792 4.80761 29.3934 5.3934C28.8076 5.97918 28.8076 6.92893 29.3934 7.51472L37.8787 16L29.3934 24.4853C28.8076 25.0711 28.8076 26.0208 29.3934 26.6066C29.9792 27.1924 30.9289 27.1924 31.5147 26.6066L41.0607 17.0607ZM10 17.5L40 17.5V14.5L10 14.5V17.5Z" fill="white"/>
<path id="Arrow 2" d="M40 35.5C40.8284 35.5 41.5 34.8284 41.5 34C41.5 33.1716 40.8284 32.5 40 32.5V35.5ZM8.93934 32.9393C8.35355 33.5251 8.35355 34.4749 8.93934 35.0607L18.4853 44.6066C19.0711 45.1924 20.0208 45.1924 20.6066 44.6066C21.1924 44.0208 21.1924 43.0711 20.6066 42.4853L12.1213 34L20.6066 25.5147C21.1924 24.9289 21.1924 23.9792 20.6066 23.3934C20.0208 22.8076 19.0711 22.8076 18.4853 23.3934L8.93934 32.9393ZM40 32.5L10 32.5V35.5L40 35.5V32.5Z" fill="white"/>
</g>
</svg>
