<svg width="50" height="50" viewBox="0 0 50 50" fill="none" xmlns="http://www.w3.org/2000/svg">
<g id="trash">
<path id="Ellipse 5" d="M42.3535 19.4099C42.4089 19.4475 42.445 19.4777 42.4683 19.5C42.445 19.5223 42.4089 19.5525 42.3535 19.5901C42.1701 19.7146 41.8673 19.8543 41.4295 19.9981C40.5607 20.2834 39.277 20.5478 37.6591 20.7725C34.4309 21.2209 29.955 21.5 25 21.5C20.045 21.5 15.5691 21.2209 12.3409 20.7725C10.723 20.5478 9.43933 20.2834 8.57052 19.9981C8.13272 19.8543 7.82991 19.7146 7.64649 19.5901C7.5911 19.5525 7.55497 19.5223 7.53173 19.5C7.55497 19.4777 7.5911 19.4475 7.64649 19.4099C7.82991 19.2854 8.13272 19.1457 8.57052 19.0019C9.43933 18.7166 10.723 18.4522 12.3409 18.2275C15.5691 17.7791 20.045 17.5 25 17.5C29.955 17.5 34.4309 17.7791 37.6591 18.2275C39.277 18.4522 40.5607 18.7166 41.4295 19.0019C41.8673 19.1457 42.1701 19.2854 42.3535 19.4099ZM7.49239 19.4537C7.4924 19.4537 7.49253 19.454 7.49276 19.4545L7.49239 19.4537ZM7.49239 19.5463C7.49238 19.5463 7.49249 19.546 7.49276 19.5455L7.49239 19.5463Z" stroke="white"/>
<path id="Ellipse 6" d="M36.5 43.5C36.5 43.5024 36.5 43.5132 36.4886 43.5365C36.4762 43.5619 36.4505 43.6015 36.3995 43.6535C36.2942 43.7606 36.1132 43.888 35.8361 44.0246C35.2836 44.2967 34.4519 44.5556 33.3833 44.7783C31.2543 45.2218 28.2901 45.5 25 45.5C21.7099 45.5 18.7457 45.2218 16.6167 44.7783C15.5481 44.5556 14.7164 44.2967 14.164 44.0246C13.8868 43.888 13.7058 43.7606 13.6005 43.6535C13.5495 43.6015 13.5238 43.5619 13.5114 43.5365C13.5 43.5132 13.5 43.5024 13.5 43.5C13.5 43.4976 13.5 43.4868 13.5114 43.4635C13.5238 43.4381 13.5495 43.3985 13.6005 43.3465C13.7058 43.2394 13.8868 43.112 14.164 42.9754C14.7164 42.7033 15.5481 42.4444 16.6167 42.2217C18.7457 41.7782 21.7099 41.5 25 41.5C28.2901 41.5 31.2543 41.7782 33.3833 42.2217C34.4519 42.4444 35.2836 42.7033 35.8361 42.9754C36.1132 43.112 36.2942 43.2394 36.3995 43.3465C36.4505 43.3985 36.4762 43.4381 36.4886 43.4635C36.5 43.4868 36.5 43.4976 36.5 43.5Z" stroke="white"/>
<line id="Line 6" x1="41.4851" y1="19.1213" x2="35.4851" y2="43.1213" stroke="white"/>
<line id="Line 7" x1="8.48573" y1="19.8814" x2="14.3546" y2="43.9138" stroke="white"/>
<g id="Star 1">
<path d="M19 34L19.8406 34.9705L21 34.6029L21.2967 35.9162L22.4641 36.25L22.1373 37.5543L23 38.5L22.1373 39.4457L22.4641 40.75L21.2967 41.0838L21 42.3971L19.8406 42.0295L19 43L18.1594 42.0295L17 42.3971L16.7033 41.0838L15.5359 40.75L15.8627 39.4457L15 38.5L15.8627 37.5543L15.5359 36.25L16.7033 35.9162L17 34.6029L18.1594 34.9705L19 34Z" fill="white"/>
<path d="M19 34L19.8406 34.9705L21 34.6029L21.2967 35.9162L22.4641 36.25L22.1373 37.5543L23 38.5L22.1373 39.4457L22.4641 40.75L21.2967 41.0838L21 42.3971L19.8406 42.0295L19 43L18.1594 42.0295L17 42.3971L16.7033 41.0838L15.5359 40.75L15.8627 39.4457L15 38.5L15.8627 37.5543L15.5359 36.25L16.7033 35.9162L17 34.6029L18.1594 34.9705L19 34Z" fill="white"/>
<path d="M19 34L19.8406 34.9705L21 34.6029L21.2967 35.9162L22.4641 36.25L22.1373 37.5543L23 38.5L22.1373 39.4457L22.4641 40.75L21.2967 41.0838L21 42.3971L19.8406 42.0295L19 43L18.1594 42.0295L17 42.3971L16.7033 41.0838L15.5359 40.75L15.8627 39.4457L15 38.5L15.8627 37.5543L15.5359 36.25L16.7033 35.9162L17 34.6029L18.1594 34.9705L19 34Z" fill="white"/>
</g>
<g id="Star 8">
<path d="M17 25L17.8406 25.9705L19 25.6029L19.2967 26.9162L20.4641 27.25L20.1373 28.5543L21 29.5L20.1373 30.4457L20.4641 31.75L19.2967 32.0838L19 33.3971L17.8406 33.0295L17 34L16.1594 33.0295L15 33.3971L14.7033 32.0838L13.5359 31.75L13.8627 30.4457L13 29.5L13.8627 28.5543L13.5359 27.25L14.7033 26.9162L15 25.6029L16.1594 25.9705L17 25Z" fill="white"/>
<path d="M17 25L17.8406 25.9705L19 25.6029L19.2967 26.9162L20.4641 27.25L20.1373 28.5543L21 29.5L20.1373 30.4457L20.4641 31.75L19.2967 32.0838L19 33.3971L17.8406 33.0295L17 34L16.1594 33.0295L15 33.3971L14.7033 32.0838L13.5359 31.75L13.8627 30.4457L13 29.5L13.8627 28.5543L13.5359 27.25L14.7033 26.9162L15 25.6029L16.1594 25.9705L17 25Z" fill="white"/>
<path d="M17 25L17.8406 25.9705L19 25.6029L19.2967 26.9162L20.4641 27.25L20.1373 28.5543L21 29.5L20.1373 30.4457L20.4641 31.75L19.2967 32.0838L19 33.3971L17.8406 33.0295L17 34L16.1594 33.0295L15 33.3971L14.7033 32.0838L13.5359 31.75L13.8627 30.4457L13 29.5L13.8627 28.5543L13.5359 27.25L14.7033 26.9162L15 25.6029L16.1594 25.9705L17 25Z" fill="white"/>
</g>
<g id="Star 2">
<path d="M24 27L24.8406 27.9705L26 27.6029L26.2967 28.9162L27.4641 29.25L27.1373 30.5543L28 31.5L27.1373 32.4457L27.4641 33.75L26.2967 34.0838L26 35.3971L24.8406 35.0295L24 36L23.1594 35.0295L22 35.3971L21.7033 34.0838L20.5359 33.75L20.8627 32.4457L20 31.5L20.8627 30.5543L20.5359 29.25L21.7033 28.9162L22 27.6029L23.1594 27.9705L24 27Z" fill="white"/>
<path d="M24 27L24.8406 27.9705L26 27.6029L26.2967 28.9162L27.4641 29.25L27.1373 30.5543L28 31.5L27.1373 32.4457L27.4641 33.75L26.2967 34.0838L26 35.3971L24.8406 35.0295L24 36L23.1594 35.0295L22 35.3971L21.7033 34.0838L20.5359 33.75L20.8627 32.4457L20 31.5L20.8627 30.5543L20.5359 29.25L21.7033 28.9162L22 27.6029L23.1594 27.9705L24 27Z" fill="white"/>
<path d="M24 27L24.8406 27.9705L26 27.6029L26.2967 28.9162L27.4641 29.25L27.1373 30.5543L28 31.5L27.1373 32.4457L27.4641 33.75L26.2967 34.0838L26 35.3971L24.8406 35.0295L24 36L23.1594 35.0295L22 35.3971L21.7033 34.0838L20.5359 33.75L20.8627 32.4457L20 31.5L20.8627 30.5543L20.5359 29.25L21.7033 28.9162L22 27.6029L23.1594 27.9705L24 27Z" fill="white"/>
</g>
<g id="Star 4">
<path d="M29 35L29.8406 35.9705L31 35.6029L31.2967 36.9162L32.4641 37.25L32.1373 38.5543L33 39.5L32.1373 40.4457L32.4641 41.75L31.2967 42.0838L31 43.3971L29.8406 43.0295L29 44L28.1594 43.0295L27 43.3971L26.7033 42.0838L25.5359 41.75L25.8627 40.4457L25 39.5L25.8627 38.5543L25.5359 37.25L26.7033 36.9162L27 35.6029L28.1594 35.9705L29 35Z" fill="white"/>
<path d="M29 35L29.8406 35.9705L31 35.6029L31.2967 36.9162L32.4641 37.25L32.1373 38.5543L33 39.5L32.1373 40.4457L32.4641 41.75L31.2967 42.0838L31 43.3971L29.8406 43.0295L29 44L28.1594 43.0295L27 43.3971L26.7033 42.0838L25.5359 41.75L25.8627 40.4457L25 39.5L25.8627 38.5543L25.5359 37.25L26.7033 36.9162L27 35.6029L28.1594 35.9705L29 35Z" fill="white"/>
<path d="M29 35L29.8406 35.9705L31 35.6029L31.2967 36.9162L32.4641 37.25L32.1373 38.5543L33 39.5L32.1373 40.4457L32.4641 41.75L31.2967 42.0838L31 43.3971L29.8406 43.0295L29 44L28.1594 43.0295L27 43.3971L26.7033 42.0838L25.5359 41.75L25.8627 40.4457L25 39.5L25.8627 38.5543L25.5359 37.25L26.7033 36.9162L27 35.6029L28.1594 35.9705L29 35Z" fill="white"/>
</g>
<g id="Star 5">
<path d="M25 10L25.8406 10.9705L27 10.6029L27.2967 11.9162L28.4641 12.25L28.1373 13.5543L29 14.5L28.1373 15.4457L28.4641 16.75L27.2967 17.0838L27 18.3971L25.8406 18.0295L25 19L24.1594 18.0295L23 18.3971L22.7033 17.0838L21.5359 16.75L21.8627 15.4457L21 14.5L21.8627 13.5543L21.5359 12.25L22.7033 11.9162L23 10.6029L24.1594 10.9705L25 10Z" fill="white"/>
<path d="M25 10L25.8406 10.9705L27 10.6029L27.2967 11.9162L28.4641 12.25L28.1373 13.5543L29 14.5L28.1373 15.4457L28.4641 16.75L27.2967 17.0838L27 18.3971L25.8406 18.0295L25 19L24.1594 18.0295L23 18.3971L22.7033 17.0838L21.5359 16.75L21.8627 15.4457L21 14.5L21.8627 13.5543L21.5359 12.25L22.7033 11.9162L23 10.6029L24.1594 10.9705L25 10Z" fill="white"/>
<path d="M25 10L25.8406 10.9705L27 10.6029L27.2967 11.9162L28.4641 12.25L28.1373 13.5543L29 14.5L28.1373 15.4457L28.4641 16.75L27.2967 17.0838L27 18.3971L25.8406 18.0295L25 19L24.1594 18.0295L23 18.3971L22.7033 17.0838L21.5359 16.75L21.8627 15.4457L21 14.5L21.8627 13.5543L21.5359 12.25L22.7033 11.9162L23 10.6029L24.1594 10.9705L25 10Z" fill="white"/>
</g>
<g id="Star 6">
<path d="M34 8L34.8406 8.97051L36 8.60289L36.2967 9.91623L37.4641 10.25L37.1373 11.5543L38 12.5L37.1373 13.4457L37.4641 14.75L36.2967 15.0838L36 16.3971L34.8406 16.0295L34 17L33.1594 16.0295L32 16.3971L31.7033 15.0838L30.5359 14.75L30.8627 13.4457L30 12.5L30.8627 11.5543L30.5359 10.25L31.7033 9.91623L32 8.60289L33.1594 8.97051L34 8Z" fill="white"/>
<path d="M34 8L34.8406 8.97051L36 8.60289L36.2967 9.91623L37.4641 10.25L37.1373 11.5543L38 12.5L37.1373 13.4457L37.4641 14.75L36.2967 15.0838L36 16.3971L34.8406 16.0295L34 17L33.1594 16.0295L32 16.3971L31.7033 15.0838L30.5359 14.75L30.8627 13.4457L30 12.5L30.8627 11.5543L30.5359 10.25L31.7033 9.91623L32 8.60289L33.1594 8.97051L34 8Z" fill="white"/>
<path d="M34 8L34.8406 8.97051L36 8.60289L36.2967 9.91623L37.4641 10.25L37.1373 11.5543L38 12.5L37.1373 13.4457L37.4641 14.75L36.2967 15.0838L36 16.3971L34.8406 16.0295L34 17L33.1594 16.0295L32 16.3971L31.7033 15.0838L30.5359 14.75L30.8627 13.4457L30 12.5L30.8627 11.5543L30.5359 10.25L31.7033 9.91623L32 8.60289L33.1594 8.97051L34 8Z" fill="white"/>
</g>
<g id="Star 7">
<path d="M33 24L33.8406 24.9705L35 24.6029L35.2967 25.9162L36.4641 26.25L36.1373 27.5543L37 28.5L36.1373 29.4457L36.4641 30.75L35.2967 31.0838L35 32.3971L33.8406 32.0295L33 33L32.1594 32.0295L31 32.3971L30.7033 31.0838L29.5359 30.75L29.8627 29.4457L29 28.5L29.8627 27.5543L29.5359 26.25L30.7033 25.9162L31 24.6029L32.1594 24.9705L33 24Z" fill="white"/>
<path d="M33 24L33.8406 24.9705L35 24.6029L35.2967 25.9162L36.4641 26.25L36.1373 27.5543L37 28.5L36.1373 29.4457L36.4641 30.75L35.2967 31.0838L35 32.3971L33.8406 32.0295L33 33L32.1594 32.0295L31 32.3971L30.7033 31.0838L29.5359 30.75L29.8627 29.4457L29 28.5L29.8627 27.5543L29.5359 26.25L30.7033 25.9162L31 24.6029L32.1594 24.9705L33 24Z" fill="white"/>
<path d="M33 24L33.8406 24.9705L35 24.6029L35.2967 25.9162L36.4641 26.25L36.1373 27.5543L37 28.5L36.1373 29.4457L36.4641 30.75L35.2967 31.0838L35 32.3971L33.8406 32.0295L33 33L32.1594 32.0295L31 32.3971L30.7033 31.0838L29.5359 30.75L29.8627 29.4457L29 28.5L29.8627 27.5543L29.5359 26.25L30.7033 25.9162L31 24.6029L32.1594 24.9705L33 24Z" fill="white"/>
</g>
<g id="Star 3">
<path d="M19 34L19.8406 34.9705L21 34.6029L21.2967 35.9162L22.4641 36.25L22.1373 37.5543L23 38.5L22.1373 39.4457L22.4641 40.75L21.2967 41.0838L21 42.3971L19.8406 42.0295L19 43L18.1594 42.0295L17 42.3971L16.7033 41.0838L15.5359 40.75L15.8627 39.4457L15 38.5L15.8627 37.5543L15.5359 36.25L16.7033 35.9162L17 34.6029L18.1594 34.9705L19 34Z" fill="white"/>
<path d="M19 34L19.8406 34.9705L21 34.6029L21.2967 35.9162L22.4641 36.25L22.1373 37.5543L23 38.5L22.1373 39.4457L22.4641 40.75L21.2967 41.0838L21 42.3971L19.8406 42.0295L19 43L18.1594 42.0295L17 42.3971L16.7033 41.0838L15.5359 40.75L15.8627 39.4457L15 38.5L15.8627 37.5543L15.5359 36.25L16.7033 35.9162L17 34.6029L18.1594 34.9705L19 34Z" fill="white"/>
<path d="M19 34L19.8406 34.9705L21 34.6029L21.2967 35.9162L22.4641 36.25L22.1373 37.5543L23 38.5L22.1373 39.4457L22.4641 40.75L21.2967 41.0838L21 42.3971L19.8406 42.0295L19 43L18.1594 42.0295L17 42.3971L16.7033 41.0838L15.5359 40.75L15.8627 39.4457L15 38.5L15.8627 37.5543L15.5359 36.25L16.7033 35.9162L17 34.6029L18.1594 34.9705L19 34Z" fill="white"/>
</g>
</g>
</svg>
