<?xml version="1.0" encoding="utf-8"?>
<!-- Generator: Adobe Illustrator 18.1.1, SVG Export Plug-In . SVG Version: 6.00 Build 0)  -->
<svg version="1.1" id="Lager_1" xmlns="http://www.w3.org/2000/svg" xmlns:xlink="http://www.w3.org/1999/xlink" x="0px" y="0px"
	 viewBox="0 0 139.7 133.6" enable-background="new 0 0 139.7 133.6" xml:space="preserve">
<g id="Fill-77_1_">
	<path fill="#90DC4B" d="M54.2,98.2c-10.3,0-18.5-8.7-18.5-19.1s8.2-19.1,18.5-19.1s18.5,8.7,18.5,19.1C72.7,90,64.5,98.2,54.2,98.2
		 M54.2,43.8c-19.1,0-34.3,15.8-34.3,35.4s15.2,35.4,34.3,35.4s34.3-15.8,34.3-35.4S73.2,43.8,54.2,43.8"/>
</g>
<g id="Fill-78_1_">
	<path fill="#90DC4B" d="M54.2,10.5v16.9c27.8,0,50.6,23.4,50.6,52.3c0,9.8-2.7,19.1-7.1,27.2l13.6,9.3c6.5-10.3,9.8-22.9,9.8-35.9
		C120.6,41.6,91.2,10.5,54.2,10.5"/>
</g>
</svg>
